<svg width="643" height="756" xmlns="http://www.w3.org/2000/svg" xmlns:xlink="http://www.w3.org/1999/xlink" overflow="hidden"><defs><clipPath id="clip0"><rect x="0" y="0" width="643" height="756"/></clipPath><linearGradient x1="371" y1="468.635" x2="402" y2="468.635" gradientUnits="userSpaceOnUse" spreadMethod="reflect" id="fill1"><stop offset="0" stop-color="#EA8C8C"/><stop offset="0.5" stop-color="#F0BABA"/><stop offset="1" stop-color="#F7DEDE"/></linearGradient><linearGradient x1="183.5" y1="129.899" x2="183.5" y2="175.863" gradientUnits="userSpaceOnUse" spreadMethod="reflect" id="fill2"><stop offset="0" stop-color="#7A8085"/><stop offset="0.5" stop-color="#B1B9C0"/><stop offset="1" stop-color="#D3DCE4"/></linearGradient></defs><g clip-path="url(#clip0)"><rect x="0" y="0" width="643" height="756.411" fill="#FFFFFF"/><text font-family="Times New Roman,Times New Roman_MSFontService,sans-serif" font-weight="400" font-size="24" transform="matrix(1 0 0 0.999222 31.89 706)">AG</text><text font-family="Times New Roman,Times New Roman_MSFontService,sans-serif" font-weight="400" font-size="24" transform="matrix(1 0 0 0.999222 71.2606 706)">AG</text><text font-family="Times New Roman,Times New Roman_MSFontService,sans-serif" font-weight="400" font-size="24" transform="matrix(1 0 0 0.999222 117.964 706)">-</text><text font-family="Times New Roman,Times New Roman_MSFontService,sans-serif" font-weight="400" font-size="24" transform="matrix(1 0 0 0.999222 131.974 706)">-</text><text font-family="Times New Roman,Times New Roman_MSFontService,sans-serif" font-weight="400" font-size="24" transform="matrix(1 0 0 0.999222 150.662 706)">AT TG AG CG AG</text><text font-family="Times New Roman,Times New Roman_MSFontService,sans-serif" font-weight="400" font-size="24" transform="matrix(1 0 0 0.999222 30.5623 735)">AG AG AA AT</text><text font-family="Times New Roman,Times New Roman_MSFontService,sans-serif" font-weight="400" font-size="24" transform="matrix(1 0 0 0.999222 188.285 735)">-</text><text font-family="Times New Roman,Times New Roman_MSFontService,sans-serif" font-weight="400" font-size="24" transform="matrix(1 0 0 0.999222 202.296 735)">-</text><text font-family="Times New Roman,Times New Roman_MSFontService,sans-serif" font-weight="400" font-size="24" transform="matrix(1 0 0 0.999222 220.984 735)">AG CG AG</text><text font-family="Times New Roman,Times New Roman_MSFontService,sans-serif" font-weight="400" font-size="24" transform="matrix(1 0 0 0.999222 464.304 730)">AG CG AG</text><text font-family="Times New Roman,Times New Roman_MSFontService,sans-serif" font-weight="400" font-size="24" transform="matrix(1 0 0 0.999222 463.504 708)">AG CG AG</text><rect x="402.5" y="191.351" width="236" height="556.567" stroke="#C82423" stroke-width="1.33437" stroke-miterlimit="8" fill="none"/><text font-family="Times New Roman,Times New Roman_MSFontService,sans-serif" font-weight="400" font-size="21" transform="matrix(1 0 0 0.999222 437.794 219)">TG AG CG AG</text><text font-family="Times New Roman,Times New Roman_MSFontService,sans-serif" font-weight="400" font-size="21" transform="matrix(1 0 0 0.999222 469.222 244)">AG CG AG</text><text font-family="Times New Roman,Times New Roman_MSFontService,sans-serif" font-weight="400" font-size="21" transform="matrix(1 0 0 0.999222 413.477 293)">TGAGCGAG$AGCGAG</text><text font-family="Times New Roman,Times New Roman_MSFontService,sans-serif" font-weight="400" font-size="16" transform="matrix(1 0 0 0.999222 413.477 340)">Suffix Array:</text><text font-family="Times New Roman,Times New Roman_MSFontService,sans-serif" font-weight="400" font-size="16" transform="matrix(1 0 0 0.999222 413.477 360)">8 13 6 9 2 11 4 14 7 12 5 1 10 3 0</text><text font-family="Times New Roman,Times New Roman_MSFontService,sans-serif" font-weight="400" font-size="16" transform="matrix(1 0 0 0.999222 416.843 417)">LCP Array:</text><text font-family="Times New Roman,Times New Roman_MSFontService,sans-serif" font-weight="400" font-size="16" transform="matrix(1 0 0 0.999222 416.843 439)">0 0 2 2</text><text fill="#C00000" font-family="Times New Roman,Times New Roman_MSFontService,sans-serif" font-weight="400" font-size="16" transform="matrix(1 0 0 0.999222 464.88 439)">6</text><text font-family="Times New Roman,Times New Roman_MSFontService,sans-serif" font-weight="400" font-size="16" transform="matrix(1 0 0 0.999222 476.89 439)">0</text><text fill="#C00000" font-family="Times New Roman,Times New Roman_MSFontService,sans-serif" font-weight="400" font-size="16" transform="matrix(1 0 0 0.999222 488.899 439)">4</text><text font-family="Times New Roman,Times New Roman_MSFontService,sans-serif" font-weight="400" font-size="16" transform="matrix(1 0 0 0.999222 500.908 439)">0 1 1 3 3 1</text><text fill="#C00000" font-family="Times New Roman,Times New Roman_MSFontService,sans-serif" font-weight="400" font-size="16" transform="matrix(1 0 0 0.999222 572.964 439)">5</text><text font-family="Times New Roman,Times New Roman_MSFontService,sans-serif" font-weight="400" font-size="16" transform="matrix(1 0 0 0.999222 584.974 439)">0</text><text fill="#C00000" font-family="Times New Roman,Times New Roman_MSFontService,sans-serif" font-weight="400" font-size="21" transform="matrix(1 0 0 0.999222 446.205 541)">CGAG</text><text fill="#C00000" font-family="Times New Roman,Times New Roman_MSFontService,sans-serif" font-weight="400" font-size="21" transform="matrix(1 0 0 0.999222 447.351 562)">CGAG</text><text font-family="Times New Roman,Times New Roman_MSFontService,sans-serif" font-weight="400" font-size="21" transform="matrix(1 0 0 0.999222 507.565 562)">$AGCGAG</text><text fill="#C00000" font-family="Times New Roman,Times New Roman_MSFontService,sans-serif" font-weight="400" font-size="21" transform="matrix(1 0 0 0.999222 445.322 477)">AGCGAG</text><text font-family="Times New Roman,Times New Roman_MSFontService,sans-serif" font-weight="400" font-size="21" transform="matrix(1 0 0 0.999222 536.226 477)">$AGCGAG</text><text fill="#C00000" font-family="Times New Roman,Times New Roman_MSFontService,sans-serif" font-weight="400" font-size="21" transform="matrix(1 0 0 0.999222 446.205 497)">AGCGAG</text><text fill="#C00000" font-family="Times New Roman,Times New Roman_MSFontService,sans-serif" font-weight="400" font-size="21" transform="matrix(1 0 0 0.999222 446.273 604)">GCGAG</text><text fill="#C00000" font-family="Times New Roman,Times New Roman_MSFontService,sans-serif" font-weight="400" font-size="21" transform="matrix(1 0 0 0.999222 446.273 624)">GCGAG</text><text font-family="Times New Roman,Times New Roman_MSFontService,sans-serif" font-weight="400" font-size="21" transform="matrix(1 0 0 0.999222 521.831 624)">$AGCGAG</text><path d="M508 263.795 514.5 263.795 514.5 246.808 527.5 246.808 527.5 263.795 534 263.795 521 276.785Z" fill="#7F7F7F" fill-rule="evenodd"/><text font-family="Times New Roman,Times New Roman_MSFontService,sans-serif" font-weight="400" font-size="19" transform="matrix(1 0 0 0.999222 536.058 263)">merge</text><path d="M507 325.27 513.75 325.27 513.75 304.763 527.25 304.763 527.25 325.27 534 325.27 520.5 340.735Z" fill="#7F7F7F" fill-rule="evenodd"/><text font-family="Times New Roman,Times New Roman_MSFontService,sans-serif" font-weight="400" font-size="19" transform="matrix(1 0 0 0.999222 536.058 314)">construct</text><text font-family="Times New Roman,Times New Roman_MSFontService,sans-serif" font-weight="400" font-size="19" transform="matrix(1 0 0 0.999222 536.058 336)">suffix array</text><text font-family="Calibri,Calibri_MSFontService,sans-serif" font-weight="400" font-size="24" transform="matrix(1 0 0 0.999222 447.551 638)">…</text><text font-family="Calibri,Calibri_MSFontService,sans-serif" font-weight="400" font-size="24" transform="matrix(1 0 0 0.999222 447.551 516)">…</text><text font-family="Calibri,Calibri_MSFontService,sans-serif" font-weight="400" font-size="24" transform="matrix(1 0 0 0.999222 447.351 579)">…</text><path d="M459 693.294C459 688.419 462.955 684.467 467.833 684.467L572.167 684.467C577.045 684.467 581 688.419 581 693.294L581 728.599C581 733.474 577.045 737.426 572.167 737.426L467.833 737.426C462.955 737.426 459 733.474 459 728.599Z" stroke="#C82423" stroke-width="2.00156" stroke-linecap="square" stroke-miterlimit="8" stroke-dasharray="6.00467 2.00156" fill="none" fill-rule="evenodd"/><path d="M444.5 494.116C441.186 494.116 438.5 493.668 438.5 493.116L438.5 482.624C438.5 482.073 435.814 481.625 432.5 481.625 435.814 481.625 438.5 481.178 438.5 480.626L438.5 470.134C438.5 469.582 441.186 469.135 444.5 469.135" stroke="#C00000" stroke-width="1.33437" stroke-miterlimit="8" fill="none" fill-rule="evenodd"/><path d="M444.5 560.064C441.186 560.064 438.5 559.617 438.5 559.065L438.5 548.573C438.5 548.021 435.814 547.574 432.5 547.574 435.814 547.574 438.5 547.127 438.5 546.575L438.5 536.083C438.5 535.531 441.186 535.084 444.5 535.084" stroke="#C00000" stroke-width="1.33437" stroke-miterlimit="8" fill="none" fill-rule="evenodd"/><path d="M443.5 622.016C440.186 622.016 437.5 621.569 437.5 621.017L437.5 610.525C437.5 609.973 434.814 609.526 431.5 609.526 434.814 609.526 437.5 609.078 437.5 608.527L437.5 598.035C437.5 597.483 440.186 597.035 443.5 597.035" stroke="#C00000" stroke-width="1.33437" stroke-miterlimit="8" fill="none" fill-rule="evenodd"/><text font-family="Calibri,Calibri_MSFontService,sans-serif" font-weight="400" font-size="24" transform="matrix(1 0 0 0.999222 444.351 452)">…</text><path d="M505 660.009 511.75 660.009 511.75 640.502 525.25 640.502 525.25 660.009 532 660.009 518.5 675.474Z" fill="#7F7F7F" fill-rule="evenodd"/><text fill="#C00000" font-family="Times New Roman,Times New Roman_MSFontService,sans-serif" font-weight="400" font-size="24" transform="matrix(1 0 0 0.999222 414.96 487)">6</text><text fill="#C00000" font-family="Times New Roman,Times New Roman_MSFontService,sans-serif" font-weight="400" font-size="24" transform="matrix(1 0 0 0.999222 416.645 553)">4</text><text fill="#C00000" font-family="Times New Roman,Times New Roman_MSFontService,sans-serif" font-weight="400" font-size="24" transform="matrix(1 0 0 0.999222 417.381 616)">5</text><path d="M508 396.787 514.5 396.787 514.5 375.708 527.5 375.708 527.5 396.787 534 396.787 521 411.68Z" fill="#7F7F7F" fill-rule="evenodd"/><text font-family="Times New Roman,Times New Roman_MSFontService,sans-serif" font-weight="400" font-size="19" transform="matrix(1 0 0 0.999222 541.343 383)">find</text><text font-family="Times New Roman,Times New Roman_MSFontService,sans-serif" font-weight="400" font-size="19" transform="matrix(1 0 0 0.999222 541.343 405)">lcp</text><text font-family="Times New Roman,Times New Roman_MSFontService,sans-serif" font-weight="400" font-size="19" transform="matrix(1 0 0 0.999222 568.864 405)">interval</text><text font-family="Times New Roman,Times New Roman_MSFontService,sans-serif" font-weight="400" font-size="19" transform="matrix(1 0 0 0.999222 230.49 30)">segment without</text><text font-family="Times New Roman,Times New Roman_MSFontService,sans-serif" font-weight="400" font-size="19" transform="matrix(1 0 0 0.999222 230.49 52)">rare match</text><text font-family="Calibri,Calibri_MSFontService,sans-serif" font-weight="700" font-size="32" transform="matrix(1 0 0 0.999222 18.9899 202)">B</text><path d="M20 49.9614C20 41.1316 27.1636 33.9735 36.0003 33.9735L106 33.9735C114.836 33.9735 122 41.1316 122 49.9614L122 113.911C122 122.741 114.836 129.899 106 129.899L36.0003 129.899C27.1636 129.899 20 122.741 20 113.911Z" stroke="#A9B8C6" stroke-width="2.00156" stroke-linecap="square" stroke-miterlimit="8" stroke-dasharray="6.00467 2.00156" fill="none" fill-rule="evenodd"/><path d="M181.5 104.918 181.5 96.6747 154 96.6747 154 80.1876 181.5 80.1876 181.5 71.944 198 88.4311Z" fill="#C82423" fill-rule="evenodd"/><path d="M277 103.087C277 99.1316 280.209 95.9254 284.167 95.9254L365.833 95.9254C369.791 95.9254 373 99.1316 373 103.087L373 131.731C373 135.686 369.791 138.892 365.833 138.892L284.167 138.892C280.209 138.892 277 135.686 277 131.731Z" stroke="#C82423" stroke-width="2.00156" stroke-linecap="square" stroke-miterlimit="8" stroke-dasharray="6.00467 2.00156" fill="none" fill-rule="evenodd"/><path d="M218 19.3185C218 15.2714 221.283 11.9907 225.334 11.9907L362.667 11.9907C366.717 11.9907 370 15.2714 370 19.3185L370 48.6286C370 52.6756 366.717 55.9564 362.667 55.9564L225.334 55.9564C221.283 55.9564 218 52.6756 218 48.6286Z" stroke="#82B0D2" stroke-width="2.00156" stroke-linecap="square" stroke-miterlimit="8" stroke-dasharray="6.00467 2.00156" fill="none" fill-rule="evenodd"/><path d="M428.5 45.9643 428.5 37.7207 398 37.7207 398 21.2335 428.5 21.2335 428.5 12.99 445 29.4771Z" fill="#14517C" fill-rule="evenodd"/><path d="M478 18.1527C478 14.1977 481.209 10.9915 485.167 10.9915L604.833 10.9915C608.791 10.9915 612 14.1977 612 18.1527L612 46.7968C612 50.7518 608.791 53.958 604.833 53.958L485.167 53.958C481.209 53.958 478 50.7518 478 46.7968Z" stroke="#14517C" stroke-width="2.00156" stroke-linecap="square" stroke-miterlimit="8" stroke-dasharray="6.00467 2.00156" fill="none" fill-rule="evenodd"/><text font-family="Times New Roman,Times New Roman_MSFontService,sans-serif" font-weight="400" font-size="19" transform="matrix(1 0 0 0.999222 33.1356 53)">segment</text><text font-family="Times New Roman,Times New Roman_MSFontService,sans-serif" font-weight="400" font-size="19" transform="matrix(1 0 0 0.999222 33.1356 75)">pending</text><text font-family="Times New Roman,Times New Roman_MSFontService,sans-serif" font-weight="400" font-size="19" transform="matrix(1 0 0 0.999222 33.1356 98)">rare match</text><text font-family="Times New Roman,Times New Roman_MSFontService,sans-serif" font-weight="400" font-size="19" transform="matrix(1 0 0 0.999222 33.1356 120)">detection</text><text font-family="Times New Roman,Times New Roman_MSFontService,sans-serif" font-weight="400" font-size="19" transform="matrix(1 0 0 0.999222 141.558 48)">finding</text><text font-family="Times New Roman,Times New Roman_MSFontService,sans-serif" font-weight="400" font-size="19" transform="matrix(1 0 0 0.999222 141.558 70)">rare match</text><text font-family="Times New Roman,Times New Roman_MSFontService,sans-serif" font-weight="400" font-size="19" transform="matrix(1 0 0 0.999222 285.261 124)">rare match</text><text font-family="Times New Roman,Times New Roman_MSFontService,sans-serif" font-weight="400" font-size="19" transform="matrix(1 0 0 0.999222 483.44 39)">aligned segment</text><text font-family="Times New Roman,Times New Roman_MSFontService,sans-serif" font-weight="400" font-size="19" transform="matrix(1 0 0 0.999222 379.228 57)">wavefront</text><text font-family="Times New Roman,Times New Roman_MSFontService,sans-serif" font-weight="400" font-size="19" transform="matrix(1 0 0 0.999222 379.228 79)">alignment</text><path d="M216 103.087C216 99.1315 219.209 95.9254 223.167 95.9254L266.833 95.9254C270.791 95.9254 274 99.1315 274 103.087L274 131.731C274 135.686 270.791 138.892 266.833 138.892L223.167 138.892C219.209 138.892 216 135.686 216 131.731Z" stroke="#A9B8C6" stroke-width="2.00156" stroke-linecap="square" stroke-miterlimit="8" stroke-dasharray="6.00467 2.00156" fill="none" fill-rule="evenodd"/><text font-family="Times New Roman,Times New Roman_MSFontService,sans-serif" font-weight="400" font-size="19" transform="matrix(1 0 0 0.999222 275.856 81)">or</text><path d="M469 102.087C469 98.1323 472.209 94.9261 476.167 94.9261L613.833 94.9261C617.791 94.9261 621 98.1323 621 102.087L621 130.731C621 134.687 617.791 137.893 613.833 137.893L476.167 137.893C472.209 137.893 469 134.687 469 130.731Z" stroke="#14517C" stroke-width="2.00156" stroke-linecap="square" stroke-miterlimit="8" stroke-dasharray="6.00467 2.00156" fill="none" fill-rule="evenodd"/><path d="M0-1 21.587-1 21.587 0.210394 20.587-0.789606 34.5072-0.789606 34.5072 1.21039 19.587 1.21039 19.587 0 20.587 1 0 1ZM33.1739-3.78961 41.1739 0.210394 33.1739 4.21039Z" fill="#14517C" transform="matrix(1.8384e-16 1 1.00078 -1.83697e-16 545 53.958)"/><path d="M372 115.909 421.559 115.909 421.559 116.909 420.558 115.909 462.444 115.909 462.444 117.909 419.557 117.909 419.557 116.909 420.558 117.909 372 117.909ZM461.11 112.909 469.116 116.909 461.11 120.909Z" fill="#14517C"/><text font-family="Times New Roman,Times New Roman_MSFontService,sans-serif" font-weight="400" font-size="19" transform="matrix(1 0 0 0.999222 484.378 122)">combined result</text><text font-family="Times New Roman,Times New Roman_MSFontService,sans-serif" font-weight="400" font-size="24" transform="matrix(1 0 0 0.999222 75.9177 198)">AG</text><text font-family="Times New Roman,Times New Roman_MSFontService,sans-serif" font-weight="400" font-size="24" transform="matrix(1 0 0 0.999222 115.288 198)">AG</text><text font-family="Times New Roman,Times New Roman_MSFontService,sans-serif" font-weight="400" font-size="24" transform="matrix(1 0 0 0.999222 154.659 198)">AT TG AG CG AG</text><text font-family="Times New Roman,Times New Roman_MSFontService,sans-serif" font-weight="400" font-size="24" transform="matrix(1 0 0 0.999222 75.8339 224)">AG</text><text font-family="Times New Roman,Times New Roman_MSFontService,sans-serif" font-weight="400" font-size="24" transform="matrix(1 0 0 0.999222 115.204 224)">AG</text><text font-family="Times New Roman,Times New Roman_MSFontService,sans-serif" font-weight="400" font-size="24" transform="matrix(1 0 0 0.999222 154.575 224)">AA AT AG CG AG</text><text font-family="Times New Roman,Times New Roman_MSFontService,sans-serif" font-weight="400" font-size="24" transform="matrix(1 0 0 0.999222 78.9812 306)">AG</text><text font-family="Times New Roman,Times New Roman_MSFontService,sans-serif" font-weight="400" font-size="24" transform="matrix(1 0 0 0.999222 118.352 306)">AG</text><text font-family="Times New Roman,Times New Roman_MSFontService,sans-serif" font-weight="400" font-size="24" transform="matrix(1 0 0 0.999222 39.791 333)">AG</text><text font-family="Times New Roman,Times New Roman_MSFontService,sans-serif" font-weight="400" font-size="24" transform="matrix(1 0 0 0.999222 79.1617 333)">AG</text><text font-family="Times New Roman,Times New Roman_MSFontService,sans-serif" font-weight="400" font-size="24" transform="matrix(1 0 0 0.999222 118.532 333)">AA</text><path d="M161 262.296 169.25 262.296 169.25 236.816 185.75 236.816 185.75 262.296 194 262.296 177.5 278.783Z" fill="#C82423" fill-rule="evenodd"/><path d="M83 388.198 91.25 388.198 91.25 349.728 107.75 349.728 107.75 388.198 116 388.198 99.5 404.685Z" fill="#C82423" fill-rule="evenodd"/><path d="M269 374.209 277.25 374.209 277.25 347.729 293.75 347.729 293.75 374.209 302 374.209 285.5 390.696Z" fill="#C82423" fill-rule="evenodd"/><text font-family="Times New Roman,Times New Roman_MSFontService,sans-serif" font-weight="400" font-size="24" transform="matrix(1 0 0 0.999222 249.462 416)">AG CG AG</text><text font-family="Times New Roman,Times New Roman_MSFontService,sans-serif" font-weight="400" font-size="24" transform="matrix(1 0 0 0.999222 249.462 444)">AG CG AG</text><text font-family="Times New Roman,Times New Roman_MSFontService,sans-serif" font-weight="400" font-size="24" transform="matrix(1 0 0 0.999222 37.817 568)">AG</text><text font-family="Times New Roman,Times New Roman_MSFontService,sans-serif" font-weight="400" font-size="24" transform="matrix(1 0 0 0.999222 77.1876 568)">AG</text><text font-family="Times New Roman,Times New Roman_MSFontService,sans-serif" font-weight="400" font-size="24" transform="matrix(1 0 0 0.999222 123.891 568)">-</text><text font-family="Times New Roman,Times New Roman_MSFontService,sans-serif" font-weight="400" font-size="24" transform="matrix(1 0 0 0.999222 137.902 568)">-</text><text font-family="Times New Roman,Times New Roman_MSFontService,sans-serif" font-weight="400" font-size="24" transform="matrix(1 0 0 0.999222 37.817 601)">AG AG AA</text><text font-family="Times New Roman,Times New Roman_MSFontService,sans-serif" font-weight="400" font-size="24" transform="matrix(1 0 0 0.999222 209.589 602)">TG</text><text font-family="Times New Roman,Times New Roman_MSFontService,sans-serif" font-weight="400" font-size="24" transform="matrix(1 0 0 0.999222 213.46 618)">-</text><text font-family="Times New Roman,Times New Roman_MSFontService,sans-serif" font-weight="400" font-size="24" transform="matrix(1 0 0 0.999222 227.471 618)">-</text><text font-family="Times New Roman,Times New Roman_MSFontService,sans-serif" font-weight="400" font-size="24" transform="matrix(1 0 0 0.999222 80.842 441)">AG</text><text font-family="Times New Roman,Times New Roman_MSFontService,sans-serif" font-weight="400" font-size="24" transform="matrix(1 0 0 0.999222 120.213 441)">AG</text><text font-family="Times New Roman,Times New Roman_MSFontService,sans-serif" font-weight="400" font-size="24" transform="matrix(1 0 0 0.999222 40.137 470)">AG AG AA</text><path d="M81 522.094 89.25 522.094 89.25 484.623 105.75 484.623 105.75 522.094 114 522.094 97.5 538.581Z" fill="#14517C" fill-rule="evenodd"/><path d="M208 558.565 216.25 558.565 216.25 543.577 232.75 543.577 232.75 558.565 241 558.565 224.5 573.554Z" fill="#14517C" fill-rule="evenodd"/><path d="M244 404.519C244 399.644 247.955 395.692 252.834 395.692L357.166 395.692C362.045 395.692 366 399.644 366 404.519L366 439.824C366 444.699 362.045 448.651 357.166 448.651L252.834 448.651C247.955 448.651 244 444.699 244 439.824Z" stroke="#C82423" stroke-width="2.00156" stroke-linecap="square" stroke-miterlimit="8" stroke-dasharray="6.00467 2.00156" fill="none" fill-rule="evenodd"/><path d="M159 290.274C159 286.687 161.91 283.779 165.5 283.779L191.5 283.779C195.09 283.779 198 286.687 198 290.274L198 331.242C198 334.829 195.09 337.737 191.5 337.737L165.5 337.737C161.91 337.737 159 334.829 159 331.242Z" stroke="#C82423" stroke-width="2.00156" stroke-linecap="square" stroke-miterlimit="8" stroke-dasharray="6.00467 2.00156" fill="none" fill-rule="evenodd"/><path d="M19 693.627C19 688.016 23.5518 683.468 29.1669 683.468L327.833 683.468C333.448 683.468 338 688.016 338 693.627L338 734.262C338 739.872 333.448 744.421 327.833 744.421L29.1669 744.421C23.5518 744.421 19 739.872 19 734.262Z" stroke="#14517C" stroke-width="2.00156" stroke-linecap="square" stroke-miterlimit="8" stroke-dasharray="6.00467 2.00156" fill="none" fill-rule="evenodd"/><path d="M33 292.772C33 287.806 37.0296 283.779 42.0003 283.779L145 283.779C149.97 283.779 154 287.806 154 292.772L154 328.744C154 333.711 149.97 337.737 145 337.737L42.0003 337.737C37.0296 337.737 33 333.711 33 328.744Z" stroke="#A9B8C6" stroke-width="2.00156" stroke-linecap="square" stroke-miterlimit="8" stroke-dasharray="6.00467 2.00156" fill="none" fill-rule="evenodd"/><path d="M205 292.772C205 287.806 209.03 283.779 214 283.779L358 283.779C362.971 283.779 367 287.806 367 292.772L367 328.744C367 333.711 362.971 337.737 358 337.737L214 337.737C209.03 337.737 205 333.711 205 328.744Z" stroke="#A9B8C6" stroke-width="2.00156" stroke-linecap="square" stroke-miterlimit="8" stroke-dasharray="6.00467 2.00156" fill="none" fill-rule="evenodd"/><path d="M35 429.832C35 424.774 39.1042 420.673 44.1669 420.673L146.833 420.673C151.896 420.673 156 424.774 156 429.832L156 466.47C156 471.529 151.896 475.63 146.833 475.63L44.1669 475.63C39.1042 475.63 35 471.529 35 466.47Z" stroke="#82B0D2" stroke-width="2.00156" stroke-linecap="square" stroke-miterlimit="8" stroke-dasharray="6.00467 2.00156" fill="none" fill-rule="evenodd"/><path d="M205 401.521C205 398.302 207.612 395.692 210.833 395.692L234.167 395.692C237.388 395.692 240 398.302 240 401.521L240 442.822C240 446.041 237.388 448.651 234.167 448.651L210.833 448.651C207.612 448.651 205 446.041 205 442.822Z" stroke="#A9B8C6" stroke-width="2.00156" stroke-linecap="square" stroke-miterlimit="8" stroke-dasharray="6.00467 2.00156" fill="none" fill-rule="evenodd"/><path d="M30 555.568C30 550.049 34.4773 545.575 40.0002 545.575L149 545.575C154.523 545.575 159 550.049 159 555.568L159 595.537C159 601.055 154.523 605.529 149 605.529L40.0002 605.529C34.4773 605.529 30 601.055 30 595.537Z" stroke="#14517C" stroke-width="2.00156" stroke-linecap="square" stroke-miterlimit="8" stroke-dasharray="6.00467 2.00156" fill="none" fill-rule="evenodd"/><path d="M199 584.712C199 580.205 202.656 576.551 207.167 576.551L239.833 576.551C244.344 576.551 248 580.205 248 584.712L248 617.353C248 621.86 244.344 625.513 239.833 625.513L207.167 625.513C202.656 625.513 199 621.86 199 617.353Z" stroke="#14517C" stroke-width="2.00156" stroke-linecap="square" stroke-miterlimit="8" stroke-dasharray="6.00467 2.00156" fill="none" fill-rule="evenodd"/><path d="M0-1 39.8863-1 39.8863 83.7336 38.8863 82.7336 71.1059 82.7336 71.1059 84.7336 37.8863 84.7336 37.8863 0 38.8863 1 0 1ZM69.7726 79.7336 77.7726 83.7336 69.7726 87.7336Z" fill="#14517C" transform="matrix(1.8384e-16 1 1.00078 -1.83697e-16 94.9999 605.529)"/><path d="M180.05 337.737 180.05 511.68 179 511.68 180.001 510.68 180.001 676.956 177.999 676.956 177.999 509.68 179.05 509.68 178.049 510.68 178.049 337.737ZM183.003 675.622 179 683.622 174.997 675.622Z" fill="#14517C"/><path d="M225.095 625.513 225.095 646.119 179 646.119 180.001 645.119 180.001 677.259 177.999 677.259 177.999 644.119 224.094 644.119 223.093 645.119 223.093 625.513ZM183.003 675.925 179 683.925 174.997 675.925Z" fill="#14517C"/><path d="M306.369 448.651 306.369 645.284 179 645.284 180.001 644.284 180.001 676.928 177.999 676.928 177.999 643.284 305.368 643.284 304.367 644.284 304.367 448.651ZM183.003 675.595 179 683.595 174.997 675.595Z" fill="#14517C"/><rect x="201.5" y="277.284" width="172" height="186.855" stroke="#C82423" stroke-width="1.33437" stroke-miterlimit="8" fill="none"/><path d="M66 184.856C66 179.889 70.0295 175.863 75.0002 175.863L333 175.863C337.97 175.863 342 179.889 342 184.856L342 220.828C342 225.795 337.97 229.821 333 229.821L75.0002 229.821C70.0295 229.821 66 225.795 66 220.828Z" stroke="#A9B8C6" stroke-width="2.00156" stroke-linecap="square" stroke-miterlimit="8" stroke-dasharray="6.00467 2.00156" fill="none" fill-rule="evenodd"/><path d="M199 498.446C199 494.123 202.507 490.618 206.833 490.618L239.167 490.618C243.493 490.618 247 494.123 247 498.446L247 529.754C247 534.077 243.493 537.582 239.167 537.582L206.833 537.582C202.507 537.582 199 534.077 199 529.754Z" stroke="#82B0D2" stroke-width="2.00156" stroke-linecap="square" stroke-miterlimit="8" stroke-dasharray="6.00467 2.00156" fill="none" fill-rule="evenodd"/><text font-family="Times New Roman,Times New Roman_MSFontService,sans-serif" font-weight="400" font-size="24" transform="matrix(1 0 0 0.999222 207.837 512)">TG</text><path d="M206 470.134 214.25 470.134 214.25 453.647 230.75 453.647 230.75 470.134 239 470.134 222.5 486.621Z" fill="#C82423" fill-rule="evenodd"/><path d="M371 276.385 371.816 463.439 402 746.419 402 190.851 371 276.385Z" fill="url(#fill1)" fill-rule="evenodd"/><text font-family="Calibri,Calibri_MSFontService,sans-serif" font-weight="700" font-size="32" transform="matrix(1 0 0 0.999222 409.154 221)">C</text><text font-family="Times New Roman,Times New Roman_MSFontService,sans-serif" font-weight="400" font-size="19" transform="matrix(1 0 0 0.999222 540.539 650)">filter</text><text font-family="Times New Roman,Times New Roman_MSFontService,sans-serif" font-weight="400" font-size="19" transform="matrix(1 0 0 0.999222 540.539 672)">rare match</text><text font-family="Times New Roman,Times New Roman_MSFontService,sans-serif" font-weight="400" font-size="24" transform="matrix(1 0 0 0.999222 212.498 304)">TG AG CG AG</text><text font-family="Times New Roman,Times New Roman_MSFontService,sans-serif" font-weight="400" font-size="24" transform="matrix(1 0 0 0.999222 247.198 333)">AG CG AG</text><text font-family="Times New Roman,Times New Roman_MSFontService,sans-serif" font-weight="400" font-size="24" transform="matrix(1 0 0 0.999222 206.606 417)">TG</text><text font-family="Times New Roman,Times New Roman_MSFontService,sans-serif" font-weight="400" font-size="24" transform="matrix(1 0 0 0.999222 164.488 304)">AT</text><text font-family="Times New Roman,Times New Roman_MSFontService,sans-serif" font-weight="400" font-size="24" transform="matrix(1 0 0 0.999222 164.488 333)">AT</text><text font-family="Calibri,Calibri_MSFontService,sans-serif" font-weight="700" font-size="32" transform="matrix(1 0 0 0.999222 9.60747 26)">A</text><path d="M32 129.899 72.7731 175.863 335 175.071 104.752 129.899 32 129.899Z" fill="url(#fill2)" fill-rule="evenodd"/></g></svg>